<svg viewBox="-0.5 -0.5 100 100" xmlns="http://www.w3.org/2000/svg" id="Seo-Error-1-1--Streamline-Ux.svg" height="100" width="100"><desc>SEO Error 1 1 Streamline Illustration: https://streamlinehq.com</desc><path d="M18.828809999999997 32.34924V9.06741A4.11741 4.11741 0 0 1 22.94622 4.95h44.89353a4.11741 4.11741 0 0 1 4.11741 4.11741v16.7607" fill="none" stroke="#020064" stroke-linecap="round" stroke-linejoin="round" stroke-width="1"></path><path d="m57.87144 47.27844 -4.764869999999999 0" fill="none" stroke="#020064" stroke-linecap="round" stroke-linejoin="round" stroke-width="1"></path><path d="M67.83975000000001 4.95H22.94622a4.11741 4.11741 0 0 0 -4.11741 4.11741v5.67666h53.12835V9.06741A4.11741 4.11741 0 0 0 67.83975000000001 4.95Z" fill="none" stroke="#020064" stroke-linecap="round" stroke-linejoin="round" stroke-width="1"></path><path d="M22.94523 9.82179a2.0592 2.0592 0 1 0 4.1184 0 2.0592 2.0592 0 1 0 -4.1184 0Z" fill="none" stroke="#020064" stroke-linecap="round" stroke-linejoin="round" stroke-width="1"></path><path d="M30.16431 9.82179a2.0592 2.0592 0 1 0 4.1184 0 2.0592 2.0592 0 1 0 -4.1184 0Z" fill="none" stroke="#020064" stroke-linecap="round" stroke-linejoin="round" stroke-width="1"></path><path d="M37.3824 9.82179a2.0592 2.0592 0 1 0 4.1184 0 2.0592 2.0592 0 1 0 -4.1184 0Z" fill="none" stroke="#020064" stroke-linecap="round" stroke-linejoin="round" stroke-width="1"></path><path d="m42.075 28.00512 -2.92347 -2.9224799999999997a2.34927 2.34927 0 0 1 3.3194700000000004 -3.32343l2.92347 2.9244600000000003 2.91753 -2.9244600000000003a2.34927 2.34927 0 0 1 3.32244 3.32343l-2.9224799999999997 2.9224799999999997 2.92644 2.9224799999999997a2.34927 2.34927 0 1 1 -3.3264 3.3264l-2.9224799999999997 -2.92347" fill="none" stroke="#020064" stroke-linecap="round" stroke-linejoin="round" stroke-width="1"></path><path d="m60.557309999999994 74.22228 -3.0244500000000003 16.92999" fill="none" stroke="#020064" stroke-linecap="round" stroke-linejoin="round" stroke-width="1"></path><path d="m79.34454 91.09881 -3.11157 -17.42004 -14.59854 0" fill="none" stroke="#020064" stroke-linecap="round" stroke-linejoin="round" stroke-width="1"></path><path d="m63.29862 92.00862000000001 3.7827900000000003 -13.57389a1.36521 1.36521 0 0 1 2.72547 0L73.6065 92.07" fill="none" stroke="#020064" stroke-linecap="round" stroke-linejoin="round" stroke-width="1"></path><path d="M76.23 70.73154a4.12236 4.12236 0 0 0 4.12236 -4.12236v-5.31432a11.53053 11.53053 0 0 0 -9.504 -11.3553L68.25950999999999 52.47l-2.59776 -2.59875a16.929000000000002 16.929000000000002 0 0 0 -13.3254 8.7615" fill="none" stroke="#020064" stroke-linecap="round" stroke-linejoin="round" stroke-width="1"></path><path d="M60.6573 66.77253V56.59137c-1.75131 0.6336 -3.24819 2.14335 -4.81932 5.36085" fill="none" stroke="#020064" stroke-linecap="round" stroke-linejoin="round" stroke-width="1"></path><path d="M76.23 70.73154h-7.18542v-4.356h5.84694a1.1622599999999998 1.1622599999999998 0 0 0 1.16127 -1.1622599999999998v-5.62122" fill="none" stroke="#020064" stroke-linecap="round" stroke-linejoin="round" stroke-width="1"></path><path d="m67.23486 54.68859 -1.188 10.244520000000001 1.39887 1.60182" fill="none" stroke="#020064" stroke-linecap="round" stroke-linejoin="round" stroke-width="1"></path><path d="m69.70194000000001 66.23694 1.1384999999999998 -1.30383 -1.4553 -10.30293" fill="none" stroke="#020064" stroke-linecap="round" stroke-linejoin="round" stroke-width="1"></path><path d="m69.82173 53.20557 0 1.44045 -3.12543 0 0 -1.3563" fill="none" stroke="#020064" stroke-linecap="round" stroke-linejoin="round" stroke-width="1"></path><path d="M66.96756 66.5379a2.0968199999999997 2.0968199999999997 0 1 0 0.02079 4.193639999999999l2.0968199999999997 -0.0099 -0.02079 -4.193639999999999Z" fill="none" stroke="#020064" stroke-linecap="round" stroke-linejoin="round" stroke-width="1"></path><path d="M57.62493 94.05a1.19493 1.19493 0 0 1 -1.07514 -1.73844 3.5936999999999997 3.5936999999999997 0 0 1 3.14721 -1.85625h0.59895a3.59469 3.59469 0 0 1 3.1482 1.85625A1.19493 1.19493 0 0 1 62.37 94.05Z" fill="none" stroke="#020064" stroke-linecap="round" stroke-linejoin="round" stroke-width="1"></path><path d="M79.26237 94.05a1.19493 1.19493 0 0 0 1.07514 -1.73844 3.5936999999999997 3.5936999999999997 0 0 0 -3.14721 -1.85625h-0.59895a3.59469 3.59469 0 0 0 -3.1482 1.85625A1.19493 1.19493 0 0 0 74.51829 94.05Z" fill="none" stroke="#020064" stroke-linecap="round" stroke-linejoin="round" stroke-width="1"></path><path d="m76.23297 71.28197999999999 0 2.3967899999999998 -14.59854 0" fill="none" stroke="#020064" stroke-linecap="round" stroke-linejoin="round" stroke-width="1"></path><path d="m63.20259 71.28197999999999 1.72062 0" fill="none" stroke="#020064" stroke-linecap="round" stroke-linejoin="round" stroke-width="1"></path><path d="M65.66076 49.866299999999995a19.01988 19.01988 0 0 0 -4.3431299999999995 0.9989099999999999" fill="none" stroke="#020064" stroke-linecap="round" stroke-linejoin="round" stroke-width="1"></path><path d="m61.31862 50.8662 2.59281 2.9076299999999997a1.19889 1.19889 0 0 0 0.9088200000000001 0.3762A34.38369 34.38369 0 0 0 68.25950999999999 52.47" fill="none" stroke="#020064" stroke-linecap="round" stroke-linejoin="round" stroke-width="1"></path><path d="M70.85132999999999 49.93659a11.96217 11.96217 0 0 1 3.5857799999999997 1.29294l-1.4612399999999999 2.5443a1.19889 1.19889 0 0 1 -0.9088200000000001 0.3762c-0.34253999999999996 -0.0099 -3.80754 -1.683 -3.80754 -1.683" fill="none" stroke="#020064" stroke-linecap="round" stroke-linejoin="round" stroke-width="1"></path><path d="m70.85331000000001 48.101130000000005 -0.00198 1.83546 -2.59182 2.52945 -2.59875 -2.5997399999999997 0.00198 -1.72953" fill="none" stroke="#020064" stroke-linecap="round" stroke-linejoin="round" stroke-width="1"></path><path d="m75.24693 39.699 -0.07325999999999999 -1.42164a7.17354 7.17354 0 0 0 -0.16731000000000001 -1.17711c-3.22146 1.0692000000000002 -7.98336 1.51569 -10.988999999999999 -1.11672 0.10692 2.07009 -1.782 3.267 -2.90565 3.7917a0.48807 0.48807 0 0 1 -0.11682 0.02277l0.032670000000000005 0.63657c-2.0294999999999996 0.10493999999999999 -1.70874 3.6540899999999996 0.5395500000000001 3.53727h0.00594a7.0755300000000005 7.0755300000000005 0 0 0 13.500630000000001 -0.693h0.00594c2.2443299999999997 -0.11484000000000001 2.1968099999999997 -3.67884 0.16731000000000001 -3.57984Z" fill="none" stroke="#020064" stroke-linecap="round" stroke-linejoin="round" stroke-width="1"></path><path d="M70.16525999999999 44.846999999999994a3.20562 3.20562 0 0 0 -3.55608 0.18315" fill="none" stroke="#020064" stroke-linecap="round" stroke-linejoin="round" stroke-width="1"></path><path d="M71.46414 39.897a1.0107899999999999 1.0107899999999999 0 0 1 -1.42659 0.07425" fill="none" stroke="#020064" stroke-linecap="round" stroke-linejoin="round" stroke-width="1"></path><path d="M66.35178 40.15638a1.0098 1.0098 0 0 1 -1.42659 0.07425" fill="none" stroke="#020064" stroke-linecap="round" stroke-linejoin="round" stroke-width="1"></path><path d="M64.01339999999999 35.98551c3.1353299999999997 2.74131 8.175419999999999 2.1463200000000002 11.39094 0.98208a0.5860799999999999 0.5860799999999999 0 0 0 0.38016 -0.61182 7.83288 7.83288 0 0 0 -8.43183 -6.93891A8.05266 8.05266 0 0 0 60.192 37.9566l0.06831000000000001 1.3137299999999998a0.594 0.594 0 0 0 0.84546 0.50688c1.12266 -0.5247 3.01257 -1.72161 2.90565 -3.7917" fill="none" stroke="#020064" stroke-linecap="round" stroke-linejoin="round" stroke-width="1"></path><path d="M64.01339999999999 35.98551c-0.37917 -0.33066 -0.42768 -0.27225 -0.74349 -0.7068599999999999" fill="none" stroke="#020064" stroke-linecap="round" stroke-linejoin="round" stroke-width="1"></path><path d="M20.885887683936 54.419076474840004A16.08255 16.08255 0 1 0 48.32169807861 37.630093003866 16.08255 16.08255 0 1 0 20.885887683936 54.419076474840004Z" fill="none" stroke="#020064" stroke-linecap="round" stroke-linejoin="round" stroke-width="1"></path><path d="m51.282 58.91193 -3.564 -3.564a16.335 16.335 0 0 1 -2.93139 3.13335l3.465 3.465Z" fill="none" stroke="#020064" stroke-linecap="round" stroke-linejoin="round" stroke-width="1"></path><path d="m49.835609999999996 65.04992999999999 -1.6117199999999998 -1.61073a1.04346 1.04346 0 0 1 0 -1.46916l3.08187 -3.08088a1.04247 1.04247 0 0 1 1.46817 0l9.575280000000001 9.575280000000001a3.10662 3.10662 0 0 1 0 4.40451l-0.14454 0.14553a3.12741 3.12741 0 0 1 -4.4055 0l-3.9956399999999994 -3.9966299999999997" fill="none" stroke="#020064" stroke-linecap="round" stroke-linejoin="round" stroke-width="1"></path><path d="M21.73743 46.02411a12.86604 12.86604 0 1 0 25.73208 0 12.86604 12.86604 0 1 0 -25.73208 0Z" fill="none" stroke="#020064" stroke-linecap="round" stroke-linejoin="round" stroke-width="1"></path><path d="m51.72453 69.696 -2.2769999999999997 -1.20582a1.37709 1.37709 0 0 1 -0.7722 -1.54341l0.35145 -1.16919a1.287 1.287 0 0 1 1.89585 -0.5741999999999999l2.69181 1.4285700000000001a1.287 1.287 0 0 1 0.58707 1.8908999999999998l-0.7712100000000001 0.94743a1.3760999999999999 1.3760999999999999 0 0 1 -1.70577 0.22572Z" fill="none" stroke="#020064" stroke-linecap="round" stroke-linejoin="round" stroke-width="1"></path></svg>