<svg xmlns="http://www.w3.org/2000/svg" fill="none" viewBox="0 0 400 400" id="Audit--Streamline-Brooklyn.svg" height="400" width="400"><desc>Audit Streamline Illustration: https://streamlinehq.com</desc><g id="audit--finance-audit"><g id="document3"><path id="vector" fill="#191919" d="M43.0964 249.2c5.25 3.498 13.816 12.916 16.028 20.23 1.53 5.062 -2.016 7.574 -6.2 6.23 -8.826 -2.832 -26.942 -23.622 -16.294 -23.502 5.716 0.064 12.334 8.256 15.552 12.98 0.34 0.5 0.8 1.17 0.128 1.664 -1.584 1.15 -8.412 -11.3 -14.468 -12.184 -7 -1.02 7.054 14.2 13.652 17.942 3.08 1.744 6.338 1.744 5.414 -1.638 -2.166 -7.912 -12.834 -16.978 -13.812 -21.722Z" stroke-width="1"></path><path id="vector_2" fill="#191919" d="M97.7722 254c-0.18 1.724 -39.078 36.8 -39.754 37.322 -0.47 0.362 -0.97 1.058 -1.6 0.442 -1.016 -1 -1.93 0.328 37.892 -37.428 1.526 -1.448 2.942 -2.38 3.462 -0.336Z" stroke-width="1"></path><path id="vector_3" fill="#191919" d="M89.738 278.096c-10.182 8.81 -22.822 21.918 -24.19 20.336 -1.152 -1.334 13.6 -13.274 22.716 -21.958 1.556 -1.474 3.15 0.172 1.474 1.622Z" stroke-width="1"></path><path id="vector_4" fill="#191919" d="M121.5996 334.2c0.044 1.618 -9.624 9.324 -10.89 10.332 -1.744 1.388 -3.45 0 -1.772 -1.774 3.2072 -3.39 6.641 -6.56 10.278 -9.484 0.1888 -0.2 0.4326 -0.338 0.7002 -0.398 0.2676 -0.06 0.5468 -0.038 0.8024 0.062 0.2558 0.098 0.476 0.272 0.633 0.496 0.1568 0.226 0.2434 0.492 0.2484 0.766Z" stroke-width="1"></path><g id="vector_5"><path fill="#191919" d="M111.684 358.502c-1.818 1.728 -0.77 0.772 -69.4558 -69.08 -16.2 -16.482 -16.466 -16.04 -14.8 -17.666 7.658 -7.472 9.068 -7.72 7.612 -9.164 -1 -0.988 -2 0.086 -2.756 0.758 -2.6008 2.316 -5.0556 4.792 -7.35 7.412 -2.0276 2.312 -2.0262 2.314 0.0636 4.652l0.0264 0.03c13.638 15.252 72.8758 75.182 72.8218 75.132 11.9582 12.224 11.774 12.962 14 10.988 1.2334 -1.082 14.7194 -13.162 28.6444 -26.112l-1.4402 -2.648c-7.8562 7.314 -17.0646 15.904 -27.3662 25.698Z" stroke-width="1"></path><path fill="#191919" d="M48.2642 247.74c-1.4 1.264 0.6118 3.746 1.9818 2.494 2.6462 -2.42 6.1106 -5.562 9.844 -8.938l-3.3048 -1.04c-4.926 4.328 -8.5074 7.474 -8.521 7.484Z" stroke-width="1"></path></g></g><g id="calculator"><path id="vector_6" fill="#38a1ff" d="M68.0926 130.62c-33.518 -3.22 -35.578 -2.21 -36.356 1.98 -1.0062 5.3032 -1.6232 10.6728 -1.846 16.066 0.126 4.2 -0.186 5.156 2.472 5.72 1.6658 1.9948 37.1558 5.877 56.1414 7.8252l-1.2744 -3.7686c-9.2896 -0.9792 -24.8668 -2.8352 -51.381 -6.6206 -3.1 -0.444 -3.31 -0.828 -2.928 -3.8 2.232 -17.4 0.834 -15.97 5.568 -15.8 13.8662 0.7724 27.6904 2.1246 41.4368 4.0524V132.222c-4.0258 -0.6742 -8.084 -1.2422 -11.8328 -1.602Z" stroke-width="1"></path><path id="vector_7" fill="#38a1ff" d="M42.3744 189.9998c-1.94 17.4002 2 13.9242 -17.718 10.7642 -2.4 -0.384 -1.414 -1.5542 -0.266 -14.2822 0.156 -1.732 -0.05 -1.264 15.262 1.752 1.622 0.328 3.166 0.008 2.722 1.766Zm-16.4 7.6c-0.344 1.416 0.762 1.118 11.258 2.8302 2.112 0.344 1.226 -0.9142 2.412 -8.6582 0.274 -1.8 0.082 -1.072 -11.38 -3.874 -1.572 -0.382 -1.126 -0.372 -2.286 9.702h-0.004Z" stroke-width="1"></path><path id="vector_8" fill="#38a1ff" d="M39.946 213.148c-1.02 13.272 -0.576 13 -2.186 12.686 -15.984 -3.174 -16.278 -2.382 -16.094 -4.774 1.484 -19.182 -2.7901 -12.472 16.754 -10.2 1.272 0.152 1.85 0.764 1.526 2.288Zm-15.564 6.122c0.138 0.524 -0.5 1.516 0.814 1.728 3.432 0.556 6.856 1.162 10.278 1.744 1.66 0.284 1.21 -0.33 1.884 -8.554 0.136 -1.654 0.168 -1.102 -11.184 -3.758 -1.596 -0.374 -1.174 0.208 -1.792 8.84Z" stroke-width="1"></path><path id="vector_9" fill="#38a1ff" d="M60.8322 206.572c-14.76 -1.986 -14.746 -1.278 -14.472 -3.538 0.222 -1.83 0.688 -5.5162 1.216 -8.9902 0.86 -5.654 0.052 -3.946 15.9 -1.584 1.958 0.292 1.362 0.274 -0.756 13.3502 -0.194 1.19 -1.054 0.75 -1.888 0.762Zm-1.4 -2.9c1.534 0.262 0.948 -0.366 2.4 -7.8622 0.298 -1.532 0.07 -0.948 -9.962 -2.854 -2.2 -0.418 -1.508 0.562 -2.572 7.9162 -0.234 1.728 -0.036 1.064 10.142 2.8h-0.008Z" stroke-width="1"></path><path id="vector_10" fill="#38a1ff" d="M54.5082 166.15c15.262 2.566 15.148 1.6 14.6 4.648 -2.4 13.304 -2.2 12.2 -6.234 11.568 -11.736 -1.824 -13.148 -1.152 -12.678 -3.256 3.004 -13.396 2.528 -12.91 4.312 -12.96Zm12.438 5.696c0.236 -1.36 -0.448 -1.084 -11.054 -3.048 -2 -0.368 -1 0.98 -2.87 7.814 -0.578 2.1 0.024 1.65 10.836 3.154 1.658 0.234 1.196 0.15 3.088 -7.92Z" stroke-width="1"></path><path id="vector_11" fill="#38a1ff" d="M82.1868 209.364c-13.73 -1.704 -14.2 -1.17 -13.75 -3.518 2.244 -11.4858 1.364 -12.4658 3.2 -12.1738 13.502 2.134 14.462 1.176 14.018 3.42 -2.158 10.9458 -2.104 12.6198 -3.468 12.2718Zm-8.328 -12.7638c-0.458 0.05 -1.4 -0.586 -1.564 0.8 -1.226 9.7258 -3.584 7.4298 7.718 8.8918 1.586 0.2 1.058 -0.632 2.54 -7.3178 0.424 -1.92 -0.552 -1.522 -8.694 -2.374Z" stroke-width="1"></path><path id="vector_12" fill="#38a1ff" d="M44.5662 223.508c0.8 -10.8 0.298 -11.362 2.35 -11 15 2.658 14.612 1.502 14.132 5.086 -1.388 10.384 -0.638 11.706 -3.32 11.286 -14.43 -2.262 -13.128 -0.806 -13.162 -5.372Zm13.984 -5.2c0.434 -1.646 -0.456 -1.124 -9.676 -2.986 -1.516 -0.306 -1.142 -0.13 -1.834 7.97 -0.152 1.764 -0.364 1.28 9.742 2.752 1.418 0.202 1.028 0.04 1.768 -7.74v0.004Z" stroke-width="1"></path><path id="vector_13" fill="#38a1ff" d="M44.058 178.144c-0.044 0.958 -0.638 1.348 -1.666 1.154 -15.556 -2.92 -16.6 -2.24 -16.082 -4.812 2.6 -12.81 1.642 -13.416 3.858 -12.972 21.682 4.34 14.684 -0.372 13.89 16.63Zm-3.166 -1.692c1.528 0.218 0.984 -0.982 2.498 -9.226 0.304 -1.654 -0.164 -0.954 -11.686 -3.632 -1.778 -0.412 -1.468 0.128 -2.634 8.534 -0.42 3.034 -0.87 2.522 11.822 4.324Z" stroke-width="1"></path><path id="vector_14" fill="#38a1ff" d="M85.9998 185.47c-13.836 -1.83 -13.88 -1.318 -13.51 -3.224 2.294 -11.838 1.466 -12.8 3.366 -12.53 14 1.988 14.048 1.52 13.702 3.522 -1.878 10.898 -1.032 12.562 -3.558 12.232Zm1.02 -10.446c0.344 -1.8 -0.386 -1.2 -9.96 -2.6 -1.748 -0.258 -1.02 0.6 -2.186 7.67 -0.144 0.87 0.13 1.106 0.92 1.2 12.046 1.44 9.47 2.906 11.226 -6.27Z" stroke-width="1"></path><path id="vector_15" fill="#38a1ff" d="M77.11 231.642c-11.574 -1.6 -12.126 -1.216 -11.906 -2.826 1.8 -13 1.376 -12.978 2.97 -12.736 13.424 2.042 13.558 1.364 13.154 3.166 -2.246 9.972 -2.028 13.026 -4.218 12.396Zm-7.294 -12.756c-1.642 -0.246 -1 1.532 -2.146 7.19 -0.384 1.888 0.172 1.384 8.51 2.662 1.17 0.18 0.712 -0.042 2.166 -7.732 0.254 -1.364 0.138 -0.826 -8.53 -2.12Z" stroke-width="1"></path><path id="vector_16" fill="#38a1ff" d="M89.64 208.184c2.58 -11.632 1.486 -12.018 3.574 -11.814 1.7184 0.168 3.2206 0.302 4.5334 0.4112v2.1196c-0.7186 -0.053 -1.5182 -0.1172 -2.4074 -0.1968 -1.51 -0.134 -1.168 0.388 -2.678 7.81 -0.292 1.438 0.3 1.126 7.06 1.826l1.5286 2.354c-12.1432 -0.114 -12.0608 -0.484 -11.613 -2.498l0.0024 -0.012Z" stroke-width="1"></path><path id="vector_17" fill="#38a1ff" d="M97.6428 233.366c-6.524 -1.164 -13.06 0.6 -12.38 -2.49 2.6 -11.818 1.676 -12.352 3.714 -12.13 13.13 1.434 14 0.7 13.474 2.83 -0.876 3.6 -1.788 7.186 -2.614 10.8 -0.334 1.452 -1.436 0.694 -2.194 0.99Zm-1.224 -2.502c0.422 -0.022 1.11 0.29 1.372 -0.62 0.7164 -2.398 1.2888 -4.834 1.714 -7.3 0.254 -1.582 -0.4 -1.152 -8.648 -1.68 -1.478 -0.094 -1.17 0.328 -2.744 7.658 -0.348 1.622 0.226 1.224 8.306 1.942Z" stroke-width="1"></path><path id="vector_18" fill="#38a1ff" d="M40.1042 114.312c-15.18 -0.234 -19.1 -3.656 -25.2939 50.496 -7.742 67.678 -6.438 66.67 6.1259 70.942 13.418 4.564 68.5542 10.468 79.6002 10.19 1.6196 0.094 3.2208 -0.382 4.5276 -1.344 1.3068 -0.96 2.237 -2.348 2.6302 -3.922 0.2142 -0.674 0.474 -1.622 0.7714 -2.808l-2.1682 -4.204c-0.5166 2.53 -0.9592 4.426 -1.2972 5.526 -1.166 3.8 -2.416 3.64 -9.344 3.51 -6.028 -0.112 -29.882 -2.4 -34.256 -3.01 -35.564 -5 -47.8699 -5.496 -48.0919 -16.732 -0.298 -15.11 6.666 -88.238 13.9999 -102.4 0.966 -1.868 1.69 -2.69 8.108 -2.434 6.4142 0.2566 24.0494 1.4532 41.2864 3.5542V118.122c-15.6542 -2.2726 -30.8542 -3.724 -36.5984 -3.81Z" stroke-width="1"></path></g><g id="document2"><g id="vector_19"><path fill="#191919" d="M166.9276 350.966c1.6 2.63 4.894 0.354 8 -0.564 34.0004 -10.078 137.8384 -43.47 169.7524 -58.948 2.12 -1.044 3.306 -2.52 3.052 -4.254 -1.356 -19.028 -6.616 -43.594 -11.19 -61.898l-5.14 -2.45c1.678 5.77 2.94 10.372 3.624 13.328 3.788 16.414 6.778 32.978 8.974 49.696 0.106 0.348 0.142 0.714 0.106 1.076 -0.038 0.362 -0.148 0.712 -0.324 1.032 -0.176 0.318 -0.414 0.598 -0.7 0.824 -0.286 0.224 -0.616 0.388 -0.966 0.484 -11.984 5.67 -171.0184 62.87 -173.2124 58.304 -2.3354 -4.86 -4.401 -9.284 -6.2684 -13.46l-3.7446 1.414c2.5638 5.634 5.2362 10.806 8.037 15.416Z" stroke-width="1"></path><path fill="#191919" d="M302.756 116.7338c-11.6 -34.668 -15.8 -42.368 -26.724 -64.586 -2.046 -4.166 -1.728 -4.046 -5.93 -3.534 -6.712 0.8166 -11.84 1.4316 -16.638 2.1578l1.328 3.202c10.532 -2.0632 17.33 -2.6794 18.066 -1.1118 6.126 13.066 12.302 26.106 17.11 39.742 0.546 1.567 19.002 57.6446 32.272 100.1338l4.834 1.1468c-9.43 -29.9184 -24.308 -77.115 -24.318 -77.1506Z" stroke-width="1"></path></g></g><g id="document1"><path id="vector_20" fill="#191919" d="M277.006 105.9638c-11.6 -34.668 -15.8 -42.368 -26.724 -64.586 -2.046 -4.166 -1.728 -4.046 -5.93 -3.534 -31 3.772 -28.188 3.24 -115.2626 29.254 -18.452 5.514 -45.024 13.634 -60.558 21.942 -3.96 2.118 -1.864 0.582 22.6 92.756 15.07 56.7902 28.898 123.5882 50.046 158.4002 1.6 2.63 4.894 0.354 8 -0.564 34 -10.078 137.8326 -43.482 169.7526 -58.948 2.132 -1.044 3.306 -2.52 3.052 -4.254 -1.48 -20.768 -7.61 -48.13 -12.424 -66.75l-4.182 -2.804 1.374 -5.376 -5.15 -2.9546c3.694 12.1306 6.512 21.8566 7.668 26.8626 3.8 16.422 6.74 33 8.976 49.702 0.106 0.348 0.142 0.712 0.106 1.074 -0.038 0.362 -0.146 0.714 -0.322 1.032 -0.174 0.318 -0.412 0.598 -0.698 0.824 -0.286 0.224 -0.614 0.39 -0.964 0.486 -11.966 5.674 -171.0186 62.874 -173.2126 58.304 -25.2 -52.46 -18.966 -54.112 -71.6 -240.8162 -1.3226 -4.694 -1.314 -4.698 3.0542 -6.77l0.0338 -0.016c23.874 -11.33 168.9086 -54.71 172.4586 -47.138 6.128 13.068 12.302 26.106 17.11 39.742 0.322 0.9244 6.878 20.8204 14.924 45.7058l5.37 2.2114c-4.332 -13.739 -7.492 -23.7688 -7.498 -23.7852Z" stroke-width="1"></path><path id="vector_21" fill="#191919" d="M126.1996 91.6118c8.279 0.0734 16.204 3.367 22.0962 9.1832 5.8924 5.816 9.2888 13.6976 9.4698 21.9748 0.048 19.456 -14.116 31.768 -31 31.574 -41.366 -0.478 -41.926 -62.928 -0.566 -62.732Zm-11.232 57.032c0.868 0.466 1.388 0.638 1.818 -0.624 8.318 -24.432 8.498 -22.952 7.948 -24.554 -9.492 -27.684 -8.448 -27.58 -11.012 -26.212 -21.226 11.346 -20.852 39.512 1.246 51.39Zm39.98 -24.8c0.1 -17.982 -17.654 -33.35 -36.07 -28.456 -1.186 0.314 -1.182 0.768 -0.848 1.776 8.966 27.054 7.72 26.344 10.238 26.744 29.132 4.64 26.646 5.988 26.68 -0.064Zm-1.082 8c0.656 -2.058 1.26 -1.01 -26.326 -6.076 -1.6 -0.292 -0.86 -0.32 -8.846 23.37 -1.192 3.526 27.558 6.598 35.172 -17.302v0.008Z" stroke-width="1"></path><path id="vector_22" fill="#191919" d="M291.166 251.342c1.932 0.128 2.358 2.228 0.31 2.954 -10.028 3.548 -20.828 6.654 -74 23.456 -69.4304 21.936 -68.8244 22.088 -69.3364 20.344 -0.6 -2.002 141.1004 -46.34 143.0264 -46.754Z" stroke-width="1"></path><path id="vector_23" fill="#191919" d="M174.3382 278.092c1.764 0.646 1.15 0.904 12.916 -15.042 1.936 -2.624 2.426 -2 20.3638 3.538 1.672 0.516 1.2 0.93 11.934 -15.5 1.748 -2.678 2 -2.34 20.044 2.936 2.76 0.8 0.832 1.036 37.412 -30.028 3.096 -2.63 4.58 -4.846 5.84 -3.2 1.304 1.702 0.832 1.154 -34.664 31.29 -6.086 5.168 -6.462 5.172 -8.28 4.636 -18.152 -5.352 -17.474 -5.68 -18.542 -4 -3.088 4.87 -6.372 9.612 -9.784 14.26 -1.876 2.556 -1.958 2.576 -4.954 1.688 -17.2238 -5.108 -16.5778 -5.714 -17.8218 -4.1 -12.382 16.064 -12.528 16.566 -15 15.57 -10.076 -4.046 -10.076 -3.564 -10.942 -2.732 -6.174 5.924 -11.02 10.688 -11.844 9.898 -0.704 -0.676 0.134 -1.262 0.54 -1.704 3.326 -3.62 6.838 -7.054 10.484 -10.348 1.082 -0.978 2.118 -0.894 12.298 2.838Z" stroke-width="1"></path><path id="vector_24" fill="#191919" d="M158.3214 263.4c1.626 0.16 11.684 3.98 13.21 4.57 0.868 0.336 1.376 0.356 1.904 -0.6 6.828 -12.264 14.58 -23.97 21.82 -35.99 1.436 -2.388 1.304 -1.978 16.7126 4.738 1.964 0.856 1.2 0.886 11.892 -15.956 1.44 -2.268 0.91 -3 12.318 3.036 1.97 1.042 1.6 0.524 10.068 -8.92 1.814 -2.02 2.678 -0.372 1.982 0.422 -9.9 11.298 -9.364 11.552 -11.314 10.656 -3.264 -1.502 -6.584 -2.896 -9.766 -4.554 -2.626 -1.368 -1.18 1.142 -11.922 16.8 -1.462 2.132 -1.364 1.788 -16.3346 -4.758 -3.37 -1.474 -1.51 2.116 -24.6 36.536 -1.318 1.966 -1.268 2.014 -14.692 -3.088 -1.908 -0.726 -1.034 -0.564 -10.442 12.698 -1.948 2.746 -3.508 1.75 -1.664 -1.064 9.926 -15.126 9.382 -14.678 10.828 -14.526Z" stroke-width="1"></path><path id="vector_25" fill="#191919" d="M161.9376 91.2376c-1.704 -0.028 -1.924 -1.218 -0.91 -1.978 2.616 -1.954 73.4004 -26.738 77.2904 -27.538 0.176 -0.069 0.364 -0.1014 0.552 -0.0948 0.19 0.0066 0.374 0.0518 0.546 0.133 0.17 0.081 0.322 0.1964 0.446 0.3386 0.124 0.1424 0.218 0.3086 0.276 0.4886 0.056 0.18 0.076 0.37 0.058 0.5578 -0.02 0.188 -0.076 0.37 -0.17 0.535 -0.092 0.1648 -0.216 0.309 -0.366 0.4236 -0.15 0.1144 -0.324 0.197 -0.506 0.2422 -14.57 5.914 -71.2944 25.296 -77.2164 26.892Z" stroke-width="1"></path><path id="vector_26" fill="#191919" d="M168.7516 110.076c-1.748 -0.152 -1.696 -1.6 -0.664 -2.138 5.476 -2.846 71.1844 -25.782 73.7904 -26.27 2.448 -0.458 2.658 1.964 0.872 2.682 -9.796 3.944 -65.8524 23.526 -73.9984 25.726Z" stroke-width="1"></path><path id="vector_27" fill="#191919" d="M173.5318 118.868c-1.386 -0.106 -1.816 -1.2 -0.722 -2.056 2.236 -1.748 71.1722 -25.91 74.2682 -26.434 0.336 -0.0738 0.686 -0.0178 0.982 0.1566 0.296 0.1744 0.516 0.4544 0.614 0.7836 0.098 0.3292 0.066 0.6834 -0.086 0.9912 -0.152 0.308 -0.416 0.5468 -0.736 0.6686 -8.252 3.524 -67.7942 24.206 -74.3202 25.89Z" stroke-width="1"></path><path id="vector_28" fill="#191919" d="M132.5316 235.584c-7.296 -23.084 -11.4 -17.734 11.216 -25.958 3.026 -1.1 2.296 1.956 9.086 18.572 0.1498 0.268 0.2356 0.568 0.2504 0.876 0.015 0.308 -0.0412 0.614 -0.1644 0.896 -0.123 0.282 -0.3096 0.532 -0.5452 0.732 -0.2356 0.198 -0.5136 0.338 -0.8128 0.412 -15.944 4.754 -18.138 7.296 -19.03 4.47Zm15.762 -6.968c1.084 -0.41 0.63 -0.2 -4.12 -14.104 -0.708 -2.072 -0.38 -1.228 -13.92 3.37 -1.326 0.45 -0.856 0.274 4.682 14.8 0.534 1.396 0.264 0.874 13.358 -4.066Z" stroke-width="1"></path><path id="vector_29" fill="#191919" d="M140.3354 193.754c1.2 2.916 -0.62 2.63 -17.678 8.366 -2.8 0.94 -2.338 0.348 -8.124 -17.022 -1.4 -4.2 -1.128 -3.426 16.568 -9.914 3.264 -1.198 2.462 2.112 9.234 18.57Zm-8.776 -13.972c-0.47 -1.372 -0.4 -1.424 -13.566 3.546 -1.744 0.658 -1 0.296 4.348 14.75 0.472 1.274 0.44 1.502 13.24 -3.862 1.45 -0.606 0.848 -0.238 -4.022 -14.434Z" stroke-width="1"></path><path id="vector_30" fill="#191919" d="M164.1382 98.8636c1.114 -0.876 0.138 -0.568 41.3018 -15.434 17.776 -6.42 19.504 -7.188 20.118 -5.344 0.746 2.236 0.718 1.878 -57.9478 22.166 -4.468 1.548 -4.464 -0.61 -3.472 -1.388Z" stroke-width="1"></path><path id="vector_31" fill="#191919" d="M156.0656 210.974c-2.088 -0.124 -2.084 -1.688 -0.836 -2.264 5.172 -2.4 20.152 -6.288 38.38 -12.348 1.354 -0.45 2.624 -0.708 3.104 0.636 0.736 2.064 -1 1.964 -10.55 4.88 -30.064 9.192 -27.276 8.408 -30.098 9.096Z" stroke-width="1"></path><path id="vector_32" fill="#191919" d="M144.4276 175.188c-2.064 -0.226 -2.068 -1.582 -0.8 -2.286 3.35 -1.854 19.31 -6 37.882 -12.17 1.544 -0.512 3.234 -1.028 3.62 0.684 0.4 1.764 -1.344 1.922 -5.716 3.256 -34.94 10.646 -31.964 9.79 -34.986 10.516Z" stroke-width="1"></path><path id="vector_33" fill="#191919" d="M147.3878 290.316c0.114 9.6 -11.6682 -34.612 -12.4362 -37.384 -0.734 -2.646 -0.934 -3.692 0.172 -4.018 1.384 -0.4 1.78 0.746 3.464 6.962 2.854 10.524 6.8122 23.768 8.8002 34.44Z" stroke-width="1"></path><path id="vector_34" fill="#191919" d="M158.5594 218.946c-2.02 0.116 -1.93 -1.424 -0.672 -1.882 7.8 -2.852 1.7 -0.824 28.214 -9.416 1.05 -0.34 2 -0.6 2.352 0.46 0.476 1.452 -1.586 1.698 -4.116 2.514 -8.048 2.596 -18.768 6.454 -25.778 8.324Z" stroke-width="1"></path><path id="vector_35" fill="#191919" d="M146.7542 183.2336c-1.954 -0.102 -1.712 -1.5518 -0.3 -2.0438 29.81 -10.37 29.826 -10.2 30.308 -8.944 0.434 1.126 -0.52 1.472 -1.356 1.746 -28.606 9.37 -26.376 8.6318 -28.652 9.2418Z" stroke-width="1"></path></g><g id="magnifying glass"><path id="vector_36" fill="#38a1ff" d="M256.508 119.8678c40.338 -0.434 60.6 38.944 49.13 68.42 -0.4 1.032 0.356 1.248 1.052 1.584 1.334 0.644 2.718 1.876 3.988 1.77 2.424 -0.2 1.876 -5.8 5.75 -4.05 14.444 6.534 57.268 27.6742 67.928 38.1522 9.988 9.818 4.9 16.426 -1.312 17.454 -18.826 3.116 -61.52 -24.6 -77.86 -34.6 -0.278 -0.14 -0.524 -0.332 -0.728 -0.568 -0.202 -0.234 -0.358 -0.506 -0.454 -0.802 -0.098 -0.294 -0.136 -0.606 -0.114 -0.916 0.024 -0.31 0.108 -0.612 0.248 -0.888 1.026 -3.446 0.894 -3.35 -2.236 -4.926 -1.708 -0.8602 -2.522 -0.352 -3.542 1.02 -17.438 23.472 -57.228 25.88 -78.446 -0.814 -24.312 -30.5922 -6.482 -80.3742 36.596 -80.8362Zm47.466 51.438c-0.118 -31.066 -29.922 -53.278 -58.424 -45.014 -30.836 8.942 -42.71 45.652 -20.908 72.13 27.014 32.8102 79.492 14.4522 79.332 -27.116Zm10.414 33.5702c5.35 -11.1802 8.702 -10.9302 2.6 -14.0002 -1.188 -0.6 -1.786 -0.292 -2.4 0.856 -8.022 15.1042 -8.914 14.3602 -6.924 15.6342 13.232 8.468 40.39 23.776 59.554 30.536 17.986 6.344 22.6 0.586 18.826 -5.278 -6.242 -9.714 -25.954 -18.756 -61.388 -37.7062 -1.176 -0.63 -1.256 1 -2.24 2.4 -1.64 2.332 -3.116 6.7262 -5.966 9.4542 -0.206 0.192 -4.556 3.316 -2.062 -1.896Zm-12.486 -8.7802c-0.138 1.04 1.054 0.884 3.362 2.35 1.218 0.774 1.822 0.454 2.42 -0.826 1.434 -3.064 1.5 -3.032 -1.514 -4.8 -2.544 -1.49 -1.492 -1.522 -4.268 3.276Z" stroke-width="1"></path><path id="vector_37" fill="#38a1ff" d="M297.456 173.352c-0.174 8.7062 -3.536 17.046 -9.448 23.438 -5.914 6.392 -13.968 10.392 -22.634 11.24 -5.508 0.558 -11.07 -0.056 -16.324 -1.802 -5.252 -1.746 -10.076 -4.584 -14.154 -8.3266 -4.078 -3.7432 -7.318 -8.3072 -9.506 -13.3918 -2.188 -5.0846 -3.276 -10.5748 -3.19 -16.1096 0.54 -21.316 16.282 -35.286 33.42 -35.856 25.73 -0.87 41.902 20.256 41.836 40.808Zm-56.906 9.33c-0.098 0.736 0 1.484 0.762 1.736 2.122 0.698 6.044 -14.91 8.658 -24.678 3.414 -12.764 4.758 -15.8 2.506 -16.29 -2.626 -0.58 -11.498 36.004 -11.926 39.232Zm11.582 -6.496c-0.078 1.172 1.4 2.522 2.05 0.27 1.876 -6.522 3.4 -13.132 4.838 -19.766 0.2 -0.954 0.322 -1.82 -0.71 -2.106 -1.622 -0.446 -1.72 -0.47 -6.178 21.602Zm-13.2 -23.976c-2.71 1.494 -8.258 22.468 -6.276 23 2.072 0.562 6.928 -18.676 6.268 -23h0.008Z" stroke-width="1"></path></g></g></svg>